<svg id="Capa_1" data-name="Capa 1" xmlns="http://www.w3.org/2000/svg" viewBox="0 0 510 510"><defs><style>.cls-1{fill:#aceaf9;}.cls-2{fill:#c5e2ff;}.cls-3{fill:#acb2bc;}.cls-4{fill:#d3dadd;}</style></defs><g id="_20_Expand_all_directions_orientation_shapes_and_symbols_arrows_state" data-name="20, Expand, all directions, orientation, shapes and symbols, arrows, state"><path class="cls-1" d="M154.3,105.22l7.9-7.9a10,10,0,0,0-6-17L83.79,72.81a10,10,0,0,0-11,11l7.49,72.37a10,10,0,0,0,17,6l7.9-7.9,37.85,37.85a10,10,0,0,0,14.14,0l34.94-34.94a10,10,0,0,0,0-14.14Zm-4.16,65.72-37.85-37.85a10,10,0,0,0-14.14,0l-.12.11L94,94,133.2,98l-.11.11a10,10,0,0,0,0,14.14l37.85,37.85Z" transform="translate(-1 -1)"/><path class="cls-2" d="M157.21,319.85a10,10,0,0,0-14.14,0L105.22,357.7l-7.9-7.9a10,10,0,0,0-17,6l-7.49,72.37a10,10,0,0,0,11,11l72.37-7.49a10,10,0,0,0,6-17l-7.9-7.9,37.85-37.85a10,10,0,0,0,0-14.14Zm-24.12,79.86a10,10,0,0,0,0,14.14l.11.12L94,418,98,378.8l.11.11a10,10,0,0,0,14.14,0l37.85-37.85,20.8,20.8Z" transform="translate(-1 -1)"/><path class="cls-1" d="M431.7,355.84a10,10,0,0,0-17-6l-7.9,7.9-37.85-37.85a10,10,0,0,0-14.14,0l-34.94,34.94a10,10,0,0,0,0,14.14l37.85,37.85-7.9,7.9a10,10,0,0,0,6,17l72.37,7.49a10,10,0,0,0,11-11ZM378.8,414l.11-.12a10,10,0,0,0,0-14.14l-37.85-37.85,20.8-20.8,37.85,37.85a10,10,0,0,0,14.14,0l.12-.11L418,418Z" transform="translate(-1 -1)"/><path class="cls-2" d="M354.79,192.15a10,10,0,0,0,14.14,0l37.85-37.85,7.9,7.9a10,10,0,0,0,17-6l7.49-72.37a10,10,0,0,0-11-11L355.84,80.3a10,10,0,0,0-6,17l7.9,7.9-37.85,37.85a10,10,0,0,0,0,14.14Zm24.12-79.86a10,10,0,0,0,0-14.14L378.8,98,418,94,414,133.2l-.12-.11a10,10,0,0,0-14.14,0l-37.85,37.85-20.8-20.8Z" transform="translate(-1 -1)"/><path class="cls-3" d="M210.12,77.47h11.17V131a10,10,0,0,0,10,10h49.42a10,10,0,0,0,10-10V77.47h11.17a10,10,0,0,0,7.76-16.31L263.76,4.69a10,10,0,0,0-15.52,0L202.36,61.16a10,10,0,0,0,7.76,16.31ZM256,26.86l24.87,30.61h-.16a10,10,0,0,0-10,10V121H241.29V67.47a10,10,0,0,0-10-10h-.16Z" transform="translate(-1 -1)"/><path class="cls-3" d="M131,221.29H77.47V210.12a10,10,0,0,0-16.31-7.76L4.69,248.24a10,10,0,0,0,0,15.52l56.47,45.88a10,10,0,0,0,16.31-7.76V290.71H131a10,10,0,0,0,10-10V231.29A10,10,0,0,0,131,221.29Zm-10,49.42H67.47a10,10,0,0,0-10,10v.16L26.86,256l30.61-24.87v.16a10,10,0,0,0,10,10H121Z" transform="translate(-1 -1)"/><path class="cls-3" d="M301.88,434.53H290.71V381a10,10,0,0,0-10-10H231.29a10,10,0,0,0-10,10v53.53H210.12a10,10,0,0,0-7.76,16.31l45.88,56.47a10,10,0,0,0,15.52,0l45.88-56.47a10,10,0,0,0-7.76-16.31ZM256,485.14l-24.87-30.61h.16a10,10,0,0,0,10-10V391h29.42v53.53a10,10,0,0,0,10,10h.16Z" transform="translate(-1 -1)"/><path class="cls-3" d="M507.31,248.24l-56.47-45.88a10,10,0,0,0-16.31,7.76v11.17H381a10,10,0,0,0-10,10v49.42a10,10,0,0,0,10,10h53.53v11.17a10,10,0,0,0,16.31,7.76l56.47-45.88A10,10,0,0,0,507.31,248.24Zm-52.78,32.63v-.16a10,10,0,0,0-10-10H391V241.29h53.53a10,10,0,0,0,10-10v-.16L485.14,256Z" transform="translate(-1 -1)"/><path class="cls-3" d="M256,171a85,85,0,1,0,85,85A85.1,85.1,0,0,0,256,171Zm0,150a65,65,0,1,1,65-65A65.08,65.08,0,0,1,256,321Z" transform="translate(-1 -1)"/></g><rect class="cls-4" x="206.64" y="208.35" width="93.43" height="93.43" rx="25.86"/></svg>