<svg id="Capa_1" data-name="Capa 1" xmlns="http://www.w3.org/2000/svg" viewBox="0 0 519.43 452"><defs><style>.cls-1,.cls-3{fill:#cee2f4;}.cls-1,.cls-2{stroke:#09f;}.cls-1,.cls-2,.cls-3{stroke-miterlimit:10;stroke-width:6px;}.cls-2{fill:#2e76b7;}.cls-3{stroke:#a7aeb7;}</style></defs><polygon class="cls-1" points="451 321 184.5 321 72.5 65 3 65 3 33 93.5 33 205.5 289 451 289 451 321"/><polygon class="cls-2" points="515 97 451 257 227 257 163 97 515 97"/><path class="cls-1" d="M288,416a48,48,0,1,1-48-48A48,48,0,0,1,288,416Z" transform="translate(3 -15)"/><path class="cls-1" d="M448,416a48,48,0,1,1-48-48A48,48,0,0,1,448,416Z" transform="translate(3 -15)"/><rect class="cls-3" x="275" y="26" width="59" height="35"/><rect class="cls-3" x="235" y="53" width="75" height="44"/><rect class="cls-3" x="334" y="35.5" width="97" height="61.5"/><rect class="cls-3" x="382.5" y="3" width="26.5" height="40.5"/></svg>