<svg id="Capa_1" data-name="Capa 1" xmlns="http://www.w3.org/2000/svg" viewBox="0 0 299.91 270.06"><defs><style>.cls-1,.cls-2{fill:#cee2f4;}.cls-2{stroke:#09f;stroke-miterlimit:10;stroke-width:0.75px;}</style></defs><path class="cls-1" d="M293.49,53.62H55.7a6,6,0,0,0-1.32.27L44.71,21.77a7.34,7.34,0,0,0-.49-.92,6.37,6.37,0,0,0-6.33-5.92h0L6.4,15.06a6.43,6.43,0,0,0,0,12.86h0l26.65-.11L94.63,232A30.5,30.5,0,1,0,143,242.14h88.81a30.51,30.51,0,1,0,10.65-12.85H132.38a29.44,29.44,0,0,0-26.31-3.83L96.89,195l161.92-.13a6.34,6.34,0,0,0,6-4.43,5.82,5.82,0,0,0,.59-1.26L299.68,62.8a6.22,6.22,0,0,0,.16-2.38c0-.13.07-.24.07-.37A6.41,6.41,0,0,0,293.49,53.62ZM259.75,236.78a17.68,17.68,0,1,1-17.67,17.68A17.7,17.7,0,0,1,259.75,236.78Zm-144.6,0a17.68,17.68,0,1,1-17.67,17.68A17.69,17.69,0,0,1,115.15,236.78ZM254,182l-161,.13L58.18,66.48h227.2Z" transform="translate(0 -14.93)"/><polygon class="cls-2" points="209.35 145.53 178.52 135.57 152.83 155.33 152.78 122.92 126.05 104.6 156.85 94.53 166.02 63.45 185.11 89.64 217.5 88.75 198.5 115 209.35 145.53"/></svg>