<svg id="Layer_1" data-name="Layer 1" xmlns="http://www.w3.org/2000/svg" viewBox="0 0 42.19 42.19"><defs><style>.cls-1{fill:#fff;}.cls-2{fill:#888b8c;}.cls-3{fill:#cee2f4;}.cls-4{fill:#c5e1ff;}</style></defs><path class="cls-1" d="M21.09,0A21,21,0,0,0,.84,27l1.66.89a1.92,1.92,0,0,0,.51.22c.44.08.93-.38,1.2-.8l.29-.51a4.28,4.28,0,0,1,1-1.35c1-.84,2.43-.69,3.66-.49L9,26a3.66,3.66,0,0,0-2.86.27,3.56,3.56,0,0,0-.77,1.07l-.32.55a2.42,2.42,0,0,1-1.94,1.28H2.84A2.66,2.66,0,0,1,2,28.8l-.72-.39A21.09,21.09,0,1,0,21.09,0" transform="translate(0.02 0)"/><path class="cls-2" d="M2.84,29.05h.27A2.41,2.41,0,0,0,5,27.79c.11-.18.22-.36.32-.55a3.36,3.36,0,0,1,.77-1.06A3.61,3.61,0,0,1,9,25.9l.16-1c-1.23-.2-2.63-.35-3.66.49a4.32,4.32,0,0,0-1,1.36c-.1.16-.19.34-.29.5-.27.42-.76.88-1.2.8a1.62,1.62,0,0,1-.51-.21l-1.66-.9c.14.47.29.93.46,1.38l.72.4a3,3,0,0,0,.82.32" transform="translate(0.02 0)"/><path class="cls-2" d="M32,22.76H11A2.13,2.13,0,0,1,8.9,20.65V9.34A2.13,2.13,0,0,1,11,7.23H32a2.1,2.1,0,0,1,2.11,2.11h0V20.65A2.1,2.1,0,0,1,32,22.76h0M11,8.48a.87.87,0,0,0-.87.87h0v11.3a.87.87,0,0,0,.87.83H32a.87.87,0,0,0,.87-.87V9.34A.87.87,0,0,0,32,8.48Z" transform="translate(0.02 0)"/><path class="cls-2" d="M33.29,32.82H9.81A2.1,2.1,0,0,1,7.7,30.71h0v-.07l1.24-5.1A2.12,2.12,0,0,1,11,23.48H32a2.12,2.12,0,0,1,2.11,2l1.24,5.1v.07a2.1,2.1,0,0,1-2.09,2.11h0m-24.35-2a.88.88,0,0,0,.87.8H33.29a.85.85,0,0,0,.87-.8l-1.24-5.09V25.6a.87.87,0,0,0-.87-.87H11a.87.87,0,0,0-.87.87v.07Z" transform="translate(0.02 0)"/><rect class="cls-3" x="10.16" y="8.48" width="22.66" height="13"/><polygon class="cls-4" points="25.5 17.1 21.86 14.84 24.25 13.15 15.61 11.79 20.66 18.93 21.14 15.86 24.84 18.16 25.5 17.1"/><path class="cls-4" d="M31.83,26.83H29.4c-.08-.47-.13-.7-.21-1.18h2.36c.12.48.17.71.28,1.18m-3.64,0H25.75a9.26,9.26,0,0,0-.11-1.17H28c.07.47.1.7.18,1.18m-3.65,0H22.11V25.68h2.37a5.76,5.76,0,0,0,.08,1.17m-3.65,0H18.46a5,5,0,0,1,.09-1.15h2.36v1.16m-3.64,0H14.84c.07-.46.11-.69.18-1.15h2.37a11.21,11.21,0,0,1-.12,1.15m-3.65,0H11.19c.11-.46.17-.69.29-1.15h2.36c-.09.46-.13.69-.22,1.15" transform="translate(0.02 0)"/><path class="cls-4" d="M32.32,28.87H29.77c-.08-.47-.13-.7-.21-1.17H32l.28,1.18m-3.82,0H26a9.1,9.1,0,0,0-.11-1.16h2.48c.07.47.11.71.18,1.18m-3.82,0H22.13V27.73h2.48a5.76,5.76,0,0,0,.08,1.17m-3.82,0H18.31a11.13,11.13,0,0,1,.09-1.15h2.48v1.16m-3.82,0H14.49c.08-.46.11-.69.19-1.15h2.48A9,9,0,0,1,17,28.91m-3.82,0H10.67c.12-.46.18-.69.29-1.15h2.48c-.09.46-.13.69-.22,1.15" transform="translate(0.02 0)"/><path class="cls-4" d="M32.8,30.9H30.14c-.08-.47-.13-.71-.21-1.18h2.59l.28,1.18m-4,0H26.15A11.57,11.57,0,0,0,26,29.73h2.59c.07.47.11.7.18,1.17m-4,0H22.16V29.74h2.6c0,.47,0,.7.08,1.17m-4,0H18.16c0-.46.06-.69.09-1.16h2.6v1.16m-4,0H14.17c.08-.46.11-.69.19-1.15H17a9,9,0,0,1-.12,1.15m-4,0H10.18l.28-1.15h2.6c-.09.46-.13.69-.22,1.15" transform="translate(0.02 0)"/></svg>