<svg id="Capa_1" data-name="Capa 1" xmlns="http://www.w3.org/2000/svg" viewBox="0 0 510.73 400.35"><defs><style>.cls-1{fill:#cee2f4;}.cls-2{fill:#fff;}.cls-3{fill:#a7aeb7;}</style></defs><g id="_04_Big_Diamond_Gem_Casino_Jewel_Slot_Machine_Jewelry_Shapes_Stone" data-name="04, Big Diamond, Gem, Casino, Jewel, Slot Machine, Jewelry, Shapes, Stone"><polygon class="cls-1" points="391.38 10.04 385.97 73.6 348.18 130.83 293.17 76.4 255.37 10.04 391.38 10.04"/><polygon class="cls-1" points="255.37 10.04 216.37 85.2 162.56 130.83 134.37 80 119.36 10.04 255.37 10.04"/><path class="cls-1" d="M163.19,186.65l46.41,91L256,446.18,19.36,208.85a29.9,29.9,0,0,1-8.74-22.2h0L81.27,171Z" transform="translate(-0.63 -55.83)"/><polygon class="cls-2" points="255.37 130.83 266.77 220 255.37 390.36 162.56 130.83 208.96 120.8 255.37 130.83"/><polygon class="cls-2" points="348.18 130.83 335.57 228 255.37 390.36 255.37 130.83 301.77 107.2 348.18 130.83"/><path class="cls-1" d="M501.38,186.65a29.9,29.9,0,0,1-8.74,22.2L256,446.18l92.81-259.53L425.1,163Z" transform="translate(-0.63 -55.83)"/><path class="cls-2" d="M501.38,186.65H348.81L392,65.86l100.6,100.6A29.88,29.88,0,0,1,501.38,186.65Z" transform="translate(-0.63 -55.83)"/><polygon class="cls-2" points="255.37 10.04 264.77 91.6 255.37 130.83 162.56 130.83 255.37 10.04"/><path class="cls-2" d="M120,65.86l43.2,120.79H10.62a29.88,29.88,0,0,1,8.77-20.19Z" transform="translate(-0.63 -55.83)"/><polygon class="cls-2" points="255.37 10.04 348.18 130.83 255.37 130.83 255.37 10.04"/><path class="cls-3" d="M499.68,159.39C396.26,56.15,398.81,57.67,395.38,56.44c-3-1.07,14.55-.37-275.39-.58a11,11,0,0,0-2.16.24c-4.21.94-2.09,0-105.51,103.29a40.07,40.07,0,0,0,0,56.53L248.79,453.11a10,10,0,0,0,14.4,0L499.72,215.92A40.07,40.07,0,0,0,499.68,159.39Zm-11.59,17.26H363l33.1-92.55C490,178.21,486,173.49,488.09,176.65Zm-242.09,0H183.49L246,95.29Zm20-81.36,62.52,81.36H266Zm10.3-19.43H377.81L345.57,166ZM166.43,166,134.19,75.86H235.71ZM246,196.65V388.52L177.39,196.65Zm20,0h68.62L266,388.52ZM115.9,84.1,149,176.65H23.92C26,173.46,22.1,178.09,115.9,84.1ZM22.75,196.65h133.4L231.54,407.5C14.77,189.55,25.51,202.16,22.75,196.65ZM280.46,407.5l75.4-210.85h133.4C486.49,202.15,497.42,189.36,280.46,407.5Z" transform="translate(-0.63 -55.83)"/></g></svg>