<svg id="Capa_1" data-name="Capa 1" xmlns="http://www.w3.org/2000/svg" viewBox="0 0 65.02 64.98"><defs><style>.cls-1{fill:#e8f3ff;}.cls-2{fill:#8bc4ff;}.cls-3{fill:#9db2f4;stroke:#09f;stroke-miterlimit:10;}</style></defs><g id="Profile"><circle class="cls-1" cx="32.5" cy="32.5" r="30"/><path class="cls-2" d="M54.85,51.42a30,30,0,0,1-42.29,3.41,28.9,28.9,0,0,1-3.41-3.41,23,23,0,0,1,45.7,0Z" transform="translate(0.5 0.5)"/><path class="cls-2" d="M43,23c0,10.5-13.59,15.14-19.9,6.46A10.73,10.73,0,0,1,21,23a11,11,0,0,1,22,0Z" transform="translate(0.5 0.5)"/><path class="cls-3" d="M32,0C4.57,0-9.84,32.21,7.61,52.7a32,32,0,0,0,45.11,3.66,32.43,32.43,0,0,0,3.66-3.66C74,31.93,59.16,0,32,0Zm0,4C53.84,4,67.24,28,55.87,46.58A25,25,0,0,0,42.13,31.13l.4-.5A13,13,0,0,0,32,10C20.88,10,15.18,23,21.86,31.13A25,25,0,0,0,8.13,46.58C-3.24,28,10.15,4,32,4ZM11.25,50.77a21,21,0,0,1,14-16.66,13,13,0,0,0,13.46,0,20.91,20.91,0,0,1,14,16.66,28,28,0,0,1-39.55,1.91A26.47,26.47,0,0,1,11.25,50.77ZM23,23a9,9,0,1,1,9,9A9,9,0,0,1,23,23Z" transform="translate(0.5 0.5)"/></g></svg>