<svg id="Layer_1" data-name="Layer 1" xmlns="http://www.w3.org/2000/svg" viewBox="0 0 255.93 171.4"><defs><style>.cls-1{fill:#434a54;stroke-miterlimit:10;opacity:0.1;isolation:isolate;}.cls-1,.cls-2,.cls-3,.cls-4{stroke:#747b7f;}.cls-2{fill:none;}.cls-2,.cls-3,.cls-4{stroke-linecap:round;stroke-linejoin:round;stroke-width:8px;}.cls-3{fill:#c6c6c6;}.cls-4{fill:#c9e9f4;}</style></defs><path class="cls-1" d="M247.4,183.7c-6.2,6.4-54,26-87.1,26a65.47,65.47,0,0,1-23.1-4h0a82.29,82.29,0,0,1-10-4.7,65.45,65.45,0,0,0,21.2,3.3c33.1,0,81-19.6,87.1-26,5.2-5.4,6-14,2.5-19.2,4.5.9,7.9,1.8,9.3,2.8C253.5,166.1,253.5,177.2,247.4,183.7Z" transform="translate(-0.05 -42.3)"/><path class="cls-2" d="M247.4,183.7c-6.2,6.4-54,26-87.1,26a65.47,65.47,0,0,1-23.1-4h0c-20.3-7.6-36.4-25.8-58.6-52-29.8-35.2-72-41.4-72-41.4-7.1-27.1.8-48.8,21.3-66Q43.65,63.1,59.4,78h0c50.4,67.3,97.2,107,134.5,75.7,0,0,47.3,3.8,53.5,8.1S253.5,177.2,247.4,183.7Z" transform="translate(-0.05 -42.3)"/><path class="cls-3" d="M193.9,153.7C156.5,185,109.8,145.3,59.3,78,104.6,120.7,149.5,150,193.9,153.7Z" transform="translate(-0.05 -42.3)"/><path class="cls-4" d="M137.1,205.7l-117.9-3L6.5,112.3s42.2,6.2,72,41.4C100.8,179.9,116.8,198,137.1,205.7Z" transform="translate(-0.05 -42.3)"/></svg>